<mxfile><diagram id="LX3NrVUi2IdloEImj4LN" name="Page-1"><mxGraphModel dx="2796" dy="2050" grid="1" gridSize="10" guides="1" tooltips="1" connect="1" arrows="1" fold="1" page="1" pageScale="1" pageWidth="850" pageHeight="1100" math="0" shadow="0"><root><mxCell id="0"/><mxCell id="1" parent="0"/><mxCell id="24" value="" style="shape=table;startSize=0;container=1;collapsible=0;childLayout=tableLayout;" vertex="1" parent="1"><mxGeometry x="-490" y="-130" width="200" height="240" as="geometry"/></mxCell><mxCell id="25" value="" style="shape=tableRow;horizontal=0;startSize=0;swimlaneHead=0;swimlaneBody=0;top=0;left=0;bottom=0;right=0;collapsible=0;dropTarget=0;fillColor=#1ba1e2;points=[[0,0.5],[1,0.5]];portConstraint=eastwest;fontColor=#ffffff;strokeColor=#006EAF;" vertex="1" parent="24"><mxGeometry width="200" height="40" as="geometry"/></mxCell><mxCell id="26" value="pengguna" style="shape=partialRectangle;html=1;whiteSpace=wrap;connectable=0;overflow=hidden;fillColor=none;top=0;left=0;bottom=0;right=0;pointerEvents=1;" vertex="1" parent="25"><mxGeometry width="200" height="40" as="geometry"><mxRectangle width="200" height="40" as="alternateBounds"/></mxGeometry></mxCell><mxCell id="27" value="" style="shape=tableRow;horizontal=0;startSize=0;swimlaneHead=0;swimlaneBody=0;top=0;left=0;bottom=0;right=0;collapsible=0;dropTarget=0;fillColor=none;points=[[0,0.5],[1,0.5]];portConstraint=eastwest;" vertex="1" parent="24"><mxGeometry y="40" width="200" height="40" as="geometry"/></mxCell><mxCell id="28" value="ID_Pengguna (Primary Key)" style="shape=partialRectangle;html=1;whiteSpace=wrap;connectable=0;overflow=hidden;fillColor=none;top=0;left=0;bottom=0;right=0;pointerEvents=1;" vertex="1" parent="27"><mxGeometry width="200" height="40" as="geometry"><mxRectangle width="200" height="40" as="alternateBounds"/></mxGeometry></mxCell><mxCell id="29" value="" style="shape=tableRow;horizontal=0;startSize=0;swimlaneHead=0;swimlaneBody=0;top=0;left=0;bottom=0;right=0;collapsible=0;dropTarget=0;fillColor=none;points=[[0,0.5],[1,0.5]];portConstraint=eastwest;" vertex="1" parent="24"><mxGeometry y="80" width="200" height="40" as="geometry"/></mxCell><mxCell id="30" value="Nama" style="shape=partialRectangle;html=1;whiteSpace=wrap;connectable=0;overflow=hidden;fillColor=none;top=0;left=0;bottom=0;right=0;pointerEvents=1;" vertex="1" parent="29"><mxGeometry width="200" height="40" as="geometry"><mxRectangle width="200" height="40" as="alternateBounds"/></mxGeometry></mxCell><mxCell id="31" value="" style="shape=tableRow;horizontal=0;startSize=0;swimlaneHead=0;swimlaneBody=0;top=0;left=0;bottom=0;right=0;collapsible=0;dropTarget=0;fillColor=none;points=[[0,0.5],[1,0.5]];portConstraint=eastwest;" vertex="1" parent="24"><mxGeometry y="120" width="200" height="40" as="geometry"/></mxCell><mxCell id="32" value="Username" style="shape=partialRectangle;html=1;whiteSpace=wrap;connectable=0;overflow=hidden;fillColor=none;top=0;left=0;bottom=0;right=0;pointerEvents=1;" vertex="1" parent="31"><mxGeometry width="200" height="40" as="geometry"><mxRectangle width="200" height="40" as="alternateBounds"/></mxGeometry></mxCell><mxCell id="33" value="" style="shape=tableRow;horizontal=0;startSize=0;swimlaneHead=0;swimlaneBody=0;top=0;left=0;bottom=0;right=0;collapsible=0;dropTarget=0;fillColor=none;points=[[0,0.5],[1,0.5]];portConstraint=eastwest;" vertex="1" parent="24"><mxGeometry y="160" width="200" height="40" as="geometry"/></mxCell><mxCell id="34" value="Password" style="shape=partialRectangle;html=1;whiteSpace=wrap;connectable=0;overflow=hidden;fillColor=none;top=0;left=0;bottom=0;right=0;pointerEvents=1;" vertex="1" parent="33"><mxGeometry width="200" height="40" as="geometry"><mxRectangle width="200" height="40" as="alternateBounds"/></mxGeometry></mxCell><mxCell id="35" value="" style="shape=tableRow;horizontal=0;startSize=0;swimlaneHead=0;swimlaneBody=0;top=0;left=0;bottom=0;right=0;collapsible=0;dropTarget=0;fillColor=none;points=[[0,0.5],[1,0.5]];portConstraint=eastwest;" vertex="1" parent="24"><mxGeometry y="200" width="200" height="40" as="geometry"/></mxCell><mxCell id="36" value="Role (siswa, admin , &lt;br&gt;&lt;span style=&quot;white-space: pre;&quot;&gt;&#9;&lt;/span&gt;&amp;nbsp; super admin )" style="shape=partialRectangle;html=1;whiteSpace=wrap;connectable=0;overflow=hidden;fillColor=none;top=0;left=0;bottom=0;right=0;pointerEvents=1;" vertex="1" parent="35"><mxGeometry width="200" height="40" as="geometry"><mxRectangle width="200" height="40" as="alternateBounds"/></mxGeometry></mxCell><mxCell id="VkJ5TcABdocI_Z8cLHhA-128" style="edgeStyle=none;html=1;fontSize=13;" edge="1" parent="1" source="37" target="58"><mxGeometry relative="1" as="geometry"/></mxCell><mxCell id="37" value="" style="shape=table;startSize=0;container=1;collapsible=0;childLayout=tableLayout;" vertex="1" parent="1"><mxGeometry x="-190" y="820" width="180" height="200" as="geometry"/></mxCell><mxCell id="38" value="" style="shape=tableRow;horizontal=0;startSize=0;swimlaneHead=0;swimlaneBody=0;top=0;left=0;bottom=0;right=0;collapsible=0;dropTarget=0;fillColor=none;points=[[0,0.5],[1,0.5]];portConstraint=eastwest;" vertex="1" parent="37"><mxGeometry width="180" height="40" as="geometry"/></mxCell><mxCell id="39" value="&lt;font style=&quot;font-size: 14px;&quot;&gt;Mata Pelajaran&lt;/font&gt;" style="shape=partialRectangle;html=1;whiteSpace=wrap;connectable=0;overflow=hidden;fillColor=#1ba1e2;top=0;left=0;bottom=0;right=0;pointerEvents=1;fontColor=#ffffff;strokeColor=#006EAF;" vertex="1" parent="38"><mxGeometry width="180" height="40" as="geometry"><mxRectangle width="180" height="40" as="alternateBounds"/></mxGeometry></mxCell><mxCell id="40" value="" style="shape=tableRow;horizontal=0;startSize=0;swimlaneHead=0;swimlaneBody=0;top=0;left=0;bottom=0;right=0;collapsible=0;dropTarget=0;fillColor=none;points=[[0,0.5],[1,0.5]];portConstraint=eastwest;" vertex="1" parent="37"><mxGeometry y="40" width="180" height="40" as="geometry"/></mxCell><mxCell id="41" value="ID_Matpel (Primary Key)" style="shape=partialRectangle;html=1;whiteSpace=wrap;connectable=0;overflow=hidden;fillColor=none;top=0;left=0;bottom=0;right=0;pointerEvents=1;" vertex="1" parent="40"><mxGeometry width="180" height="40" as="geometry"><mxRectangle width="180" height="40" as="alternateBounds"/></mxGeometry></mxCell><mxCell id="42" value="" style="shape=tableRow;horizontal=0;startSize=0;swimlaneHead=0;swimlaneBody=0;top=0;left=0;bottom=0;right=0;collapsible=0;dropTarget=0;fillColor=none;points=[[0,0.5],[1,0.5]];portConstraint=eastwest;" vertex="1" parent="37"><mxGeometry y="80" width="180" height="40" as="geometry"/></mxCell><mxCell id="43" value="Nama_Matkul" style="shape=partialRectangle;html=1;whiteSpace=wrap;connectable=0;overflow=hidden;fillColor=none;top=0;left=0;bottom=0;right=0;pointerEvents=1;" vertex="1" parent="42"><mxGeometry width="180" height="40" as="geometry"><mxRectangle width="180" height="40" as="alternateBounds"/></mxGeometry></mxCell><mxCell id="44" value="" style="shape=tableRow;horizontal=0;startSize=0;swimlaneHead=0;swimlaneBody=0;top=0;left=0;bottom=0;right=0;collapsible=0;dropTarget=0;fillColor=none;points=[[0,0.5],[1,0.5]];portConstraint=eastwest;" vertex="1" parent="37"><mxGeometry y="120" width="180" height="40" as="geometry"/></mxCell><mxCell id="45" value="Deskripsi" style="shape=partialRectangle;html=1;whiteSpace=wrap;connectable=0;overflow=hidden;fillColor=none;top=0;left=0;bottom=0;right=0;pointerEvents=1;" vertex="1" parent="44"><mxGeometry width="180" height="40" as="geometry"><mxRectangle width="180" height="40" as="alternateBounds"/></mxGeometry></mxCell><mxCell id="46" value="" style="shape=tableRow;horizontal=0;startSize=0;swimlaneHead=0;swimlaneBody=0;top=0;left=0;bottom=0;right=0;collapsible=0;dropTarget=0;fillColor=none;points=[[0,0.5],[1,0.5]];portConstraint=eastwest;" vertex="1" parent="37"><mxGeometry y="160" width="180" height="40" as="geometry"/></mxCell><mxCell id="47" value="Bobot&amp;nbsp;" style="shape=partialRectangle;html=1;whiteSpace=wrap;connectable=0;overflow=hidden;fillColor=none;top=0;left=0;bottom=0;right=0;pointerEvents=1;" vertex="1" parent="46"><mxGeometry width="180" height="40" as="geometry"><mxRectangle width="180" height="40" as="alternateBounds"/></mxGeometry></mxCell><mxCell id="48" value="" style="shape=table;startSize=0;container=1;collapsible=0;childLayout=tableLayout;" vertex="1" parent="1"><mxGeometry x="-180" y="190" width="220" height="200" as="geometry"/></mxCell><mxCell id="49" value="" style="shape=tableRow;horizontal=0;startSize=0;swimlaneHead=0;swimlaneBody=0;top=0;left=0;bottom=0;right=0;collapsible=0;dropTarget=0;fillColor=none;points=[[0,0.5],[1,0.5]];portConstraint=eastwest;" vertex="1" parent="48"><mxGeometry width="220" height="40" as="geometry"/></mxCell><mxCell id="50" value="&lt;font style=&quot;font-size: 16px;&quot;&gt;Siswa&lt;/font&gt;" style="shape=partialRectangle;html=1;whiteSpace=wrap;connectable=0;overflow=hidden;fillColor=#1ba1e2;top=0;left=0;bottom=0;right=0;pointerEvents=1;fontColor=#ffffff;strokeColor=#006EAF;" vertex="1" parent="49"><mxGeometry width="220" height="40" as="geometry"><mxRectangle width="220" height="40" as="alternateBounds"/></mxGeometry></mxCell><mxCell id="51" value="" style="shape=tableRow;horizontal=0;startSize=0;swimlaneHead=0;swimlaneBody=0;top=0;left=0;bottom=0;right=0;collapsible=0;dropTarget=0;fillColor=none;points=[[0,0.5],[1,0.5]];portConstraint=eastwest;" vertex="1" parent="48"><mxGeometry y="40" width="220" height="60" as="geometry"/></mxCell><mxCell id="52" value="&lt;strong&gt;ID_Siswa&lt;/strong&gt; (Primary Key, Foreign Key &lt;span style=&quot;white-space: pre;&quot;&gt;&#9;&lt;/span&gt;&lt;span style=&quot;white-space: pre;&quot;&gt;&#9;&lt;/span&gt;&amp;nbsp; &amp;nbsp;ke ID_Pengguna di tabel Pengguna)" style="shape=partialRectangle;html=1;whiteSpace=wrap;connectable=0;overflow=hidden;fillColor=none;top=0;left=0;bottom=0;right=0;pointerEvents=1;" vertex="1" parent="51"><mxGeometry width="220" height="60" as="geometry"><mxRectangle width="220" height="60" as="alternateBounds"/></mxGeometry></mxCell><mxCell id="53" value="" style="shape=tableRow;horizontal=0;startSize=0;swimlaneHead=0;swimlaneBody=0;top=0;left=0;bottom=0;right=0;collapsible=0;dropTarget=0;fillColor=none;points=[[0,0.5],[1,0.5]];portConstraint=eastwest;" vertex="1" parent="48"><mxGeometry y="100" width="220" height="50" as="geometry"/></mxCell><mxCell id="54" value="&lt;strong&gt;Kelas&lt;/strong&gt;&amp;nbsp;" style="shape=partialRectangle;html=1;whiteSpace=wrap;connectable=0;overflow=hidden;fillColor=none;top=0;left=0;bottom=0;right=0;pointerEvents=1;" vertex="1" parent="53"><mxGeometry width="220" height="50" as="geometry"><mxRectangle width="220" height="50" as="alternateBounds"/></mxGeometry></mxCell><mxCell id="55" value="" style="shape=tableRow;horizontal=0;startSize=0;swimlaneHead=0;swimlaneBody=0;top=0;left=0;bottom=0;right=0;collapsible=0;dropTarget=0;fillColor=none;points=[[0,0.5],[1,0.5]];portConstraint=eastwest;" vertex="1" parent="48"><mxGeometry y="150" width="220" height="50" as="geometry"/></mxCell><mxCell id="56" value="&lt;strong&gt;ID_Pengguna&lt;/strong&gt; (Foreign Key dari tabel Pengguna)" style="shape=partialRectangle;html=1;whiteSpace=wrap;connectable=0;overflow=hidden;fillColor=none;top=0;left=0;bottom=0;right=0;pointerEvents=1;" vertex="1" parent="55"><mxGeometry width="220" height="50" as="geometry"><mxRectangle width="220" height="50" as="alternateBounds"/></mxGeometry></mxCell><mxCell id="57" value="" style="shape=table;startSize=0;container=1;collapsible=0;childLayout=tableLayout;fontSize=14;" vertex="1" parent="1"><mxGeometry x="-200" y="1120" width="200" height="170" as="geometry"/></mxCell><mxCell id="58" value="" style="shape=tableRow;horizontal=0;startSize=0;swimlaneHead=0;swimlaneBody=0;top=0;left=0;bottom=0;right=0;collapsible=0;dropTarget=0;fillColor=none;points=[[0,0.5],[1,0.5]];portConstraint=eastwest;fontSize=14;" vertex="1" parent="57"><mxGeometry width="200" height="40" as="geometry"/></mxCell><mxCell id="59" value="&lt;font style=&quot;font-size: 15px;&quot;&gt;Kriteria&amp;nbsp;&lt;/font&gt;" style="shape=partialRectangle;html=1;whiteSpace=wrap;connectable=0;overflow=hidden;fillColor=#1ba1e2;top=0;left=0;bottom=0;right=0;pointerEvents=1;fontSize=14;fontColor=#ffffff;strokeColor=#006EAF;" vertex="1" parent="58"><mxGeometry width="200" height="40" as="geometry"><mxRectangle width="200" height="40" as="alternateBounds"/></mxGeometry></mxCell><mxCell id="60" value="" style="shape=tableRow;horizontal=0;startSize=0;swimlaneHead=0;swimlaneBody=0;top=0;left=0;bottom=0;right=0;collapsible=0;dropTarget=0;fillColor=none;points=[[0,0.5],[1,0.5]];portConstraint=eastwest;fontSize=14;" vertex="1" parent="57"><mxGeometry y="40" width="200" height="40" as="geometry"/></mxCell><mxCell id="61" value="&lt;strong&gt;ID_Kriteria&lt;/strong&gt; (Primary Key)" style="shape=partialRectangle;html=1;whiteSpace=wrap;connectable=0;overflow=hidden;fillColor=none;top=0;left=0;bottom=0;right=0;pointerEvents=1;fontSize=14;" vertex="1" parent="60"><mxGeometry width="200" height="40" as="geometry"><mxRectangle width="200" height="40" as="alternateBounds"/></mxGeometry></mxCell><mxCell id="62" value="" style="shape=tableRow;horizontal=0;startSize=0;swimlaneHead=0;swimlaneBody=0;top=0;left=0;bottom=0;right=0;collapsible=0;dropTarget=0;fillColor=none;points=[[0,0.5],[1,0.5]];portConstraint=eastwest;fontSize=14;" vertex="1" parent="57"><mxGeometry y="80" width="200" height="40" as="geometry"/></mxCell><mxCell id="63" value="&lt;strong&gt;Nama_Kriteria&lt;/strong&gt;" style="shape=partialRectangle;html=1;whiteSpace=wrap;connectable=0;overflow=hidden;fillColor=none;top=0;left=0;bottom=0;right=0;pointerEvents=1;fontSize=14;" vertex="1" parent="62"><mxGeometry width="200" height="40" as="geometry"><mxRectangle width="200" height="40" as="alternateBounds"/></mxGeometry></mxCell><mxCell id="64" value="" style="shape=tableRow;horizontal=0;startSize=0;swimlaneHead=0;swimlaneBody=0;top=0;left=0;bottom=0;right=0;collapsible=0;dropTarget=0;fillColor=none;points=[[0,0.5],[1,0.5]];portConstraint=eastwest;fontSize=14;" vertex="1" parent="57"><mxGeometry y="120" width="200" height="50" as="geometry"/></mxCell><mxCell id="65" value="&lt;strong&gt;Bobot_Kriteria&lt;/strong&gt; (nilai bobot kriteria)" style="shape=partialRectangle;html=1;whiteSpace=wrap;connectable=0;overflow=hidden;fillColor=none;top=0;left=0;bottom=0;right=0;pointerEvents=1;fontSize=14;" vertex="1" parent="64"><mxGeometry width="200" height="50" as="geometry"><mxRectangle width="200" height="50" as="alternateBounds"/></mxGeometry></mxCell><mxCell id="66" value="" style="shape=table;startSize=0;container=1;collapsible=0;childLayout=tableLayout;fontSize=15;" vertex="1" parent="1"><mxGeometry x="120" y="1110" width="250" height="240" as="geometry"/></mxCell><mxCell id="67" value="" style="shape=tableRow;horizontal=0;startSize=0;swimlaneHead=0;swimlaneBody=0;top=0;left=0;bottom=0;right=0;collapsible=0;dropTarget=0;fillColor=#1ba1e2;points=[[0,0.5],[1,0.5]];portConstraint=eastwest;fontSize=15;fontColor=#ffffff;strokeColor=#006EAF;" vertex="1" parent="66"><mxGeometry width="250" height="40" as="geometry"/></mxCell><mxCell id="68" value="Nilai Kriteria Mata Pelajaran" style="shape=partialRectangle;html=1;whiteSpace=wrap;connectable=0;overflow=hidden;fillColor=none;top=0;left=0;bottom=0;right=0;pointerEvents=1;fontSize=15;" vertex="1" parent="67"><mxGeometry width="250" height="40" as="geometry"><mxRectangle width="250" height="40" as="alternateBounds"/></mxGeometry></mxCell><mxCell id="69" value="" style="shape=tableRow;horizontal=0;startSize=0;swimlaneHead=0;swimlaneBody=0;top=0;left=0;bottom=0;right=0;collapsible=0;dropTarget=0;fillColor=none;points=[[0,0.5],[1,0.5]];portConstraint=eastwest;fontSize=15;" vertex="1" parent="66"><mxGeometry y="40" width="250" height="50" as="geometry"/></mxCell><mxCell id="70" value="&lt;font style=&quot;font-size: 13px;&quot;&gt;&lt;strong&gt;ID_Nilai_Kriteria&lt;/strong&gt; (Primary Key)&lt;/font&gt;" style="shape=partialRectangle;html=1;whiteSpace=wrap;connectable=0;overflow=hidden;fillColor=none;top=0;left=0;bottom=0;right=0;pointerEvents=1;fontSize=15;" vertex="1" parent="69"><mxGeometry width="250" height="50" as="geometry"><mxRectangle width="250" height="50" as="alternateBounds"/></mxGeometry></mxCell><mxCell id="71" value="" style="shape=tableRow;horizontal=0;startSize=0;swimlaneHead=0;swimlaneBody=0;top=0;left=0;bottom=0;right=0;collapsible=0;dropTarget=0;fillColor=none;points=[[0,0.5],[1,0.5]];portConstraint=eastwest;fontSize=15;" vertex="1" parent="66"><mxGeometry y="90" width="250" height="40" as="geometry"/></mxCell><mxCell id="72" value="&lt;strong&gt;ID_Matpel&lt;/strong&gt; (Foreign Key)" style="shape=partialRectangle;html=1;whiteSpace=wrap;connectable=0;overflow=hidden;fillColor=none;top=0;left=0;bottom=0;right=0;pointerEvents=1;fontSize=15;" vertex="1" parent="71"><mxGeometry width="250" height="40" as="geometry"><mxRectangle width="250" height="40" as="alternateBounds"/></mxGeometry></mxCell><mxCell id="73" value="" style="shape=tableRow;horizontal=0;startSize=0;swimlaneHead=0;swimlaneBody=0;top=0;left=0;bottom=0;right=0;collapsible=0;dropTarget=0;fillColor=none;points=[[0,0.5],[1,0.5]];portConstraint=eastwest;fontSize=15;" vertex="1" parent="66"><mxGeometry y="130" width="250" height="40" as="geometry"/></mxCell><mxCell id="74" value="&lt;strong&gt;ID_Kriteria&lt;/strong&gt; (Foreign Key)" style="shape=partialRectangle;html=1;whiteSpace=wrap;connectable=0;overflow=hidden;fillColor=none;top=0;left=0;bottom=0;right=0;pointerEvents=1;fontSize=15;" vertex="1" parent="73"><mxGeometry width="250" height="40" as="geometry"><mxRectangle width="250" height="40" as="alternateBounds"/></mxGeometry></mxCell><mxCell id="75" value="" style="shape=tableRow;horizontal=0;startSize=0;swimlaneHead=0;swimlaneBody=0;top=0;left=0;bottom=0;right=0;collapsible=0;dropTarget=0;fillColor=none;points=[[0,0.5],[1,0.5]];portConstraint=eastwest;fontSize=15;" vertex="1" parent="66"><mxGeometry y="170" width="250" height="70" as="geometry"/></mxCell><mxCell id="76" value="&lt;strong&gt;Nilai_Kriteria&lt;/strong&gt; (nilai yang diberikan untuk tiap kriteria pada mata pelajaran)" style="shape=partialRectangle;html=1;whiteSpace=wrap;connectable=0;overflow=hidden;fillColor=none;top=0;left=0;bottom=0;right=0;pointerEvents=1;fontSize=15;" vertex="1" parent="75"><mxGeometry width="250" height="70" as="geometry"><mxRectangle width="250" height="70" as="alternateBounds"/></mxGeometry></mxCell><mxCell id="VkJ5TcABdocI_Z8cLHhA-121" style="edgeStyle=orthogonalEdgeStyle;curved=1;html=1;entryX=0;entryY=0.5;entryDx=0;entryDy=0;fontSize=13;exitX=0.5;exitY=0;exitDx=0;exitDy=0;" edge="1" parent="1" source="VkJ5TcABdocI_Z8cLHhA-76" target="51"><mxGeometry relative="1" as="geometry"><Array as="points"><mxPoint x="-100" y="460"/><mxPoint x="-230" y="460"/><mxPoint x="-230" y="260"/></Array></mxGeometry></mxCell><mxCell id="VkJ5TcABdocI_Z8cLHhA-76" value="" style="shape=table;startSize=0;container=1;collapsible=0;childLayout=tableLayout;fontSize=13;" vertex="1" parent="1"><mxGeometry x="-190" y="505" width="180" height="250" as="geometry"/></mxCell><mxCell id="VkJ5TcABdocI_Z8cLHhA-77" value="" style="shape=tableRow;horizontal=0;startSize=0;swimlaneHead=0;swimlaneBody=0;top=0;left=0;bottom=0;right=0;collapsible=0;dropTarget=0;fillColor=none;points=[[0,0.5],[1,0.5]];portConstraint=eastwest;fontSize=13;" vertex="1" parent="VkJ5TcABdocI_Z8cLHhA-76"><mxGeometry width="180" height="40" as="geometry"/></mxCell><mxCell id="VkJ5TcABdocI_Z8cLHhA-78" value="Nilai Mata Pelajaran Siswa" style="shape=partialRectangle;html=1;whiteSpace=wrap;connectable=0;overflow=hidden;fillColor=#1ba1e2;top=0;left=0;bottom=0;right=0;pointerEvents=1;fontSize=13;fontColor=#ffffff;strokeColor=#006EAF;" vertex="1" parent="VkJ5TcABdocI_Z8cLHhA-77"><mxGeometry width="180" height="40" as="geometry"><mxRectangle width="180" height="40" as="alternateBounds"/></mxGeometry></mxCell><mxCell id="VkJ5TcABdocI_Z8cLHhA-79" value="" style="shape=tableRow;horizontal=0;startSize=0;swimlaneHead=0;swimlaneBody=0;top=0;left=0;bottom=0;right=0;collapsible=0;dropTarget=0;fillColor=none;points=[[0,0.5],[1,0.5]];portConstraint=eastwest;fontSize=13;" vertex="1" parent="VkJ5TcABdocI_Z8cLHhA-76"><mxGeometry y="40" width="180" height="40" as="geometry"/></mxCell><mxCell id="VkJ5TcABdocI_Z8cLHhA-80" value="&lt;strong&gt;ID_Grade&lt;/strong&gt; (Primary Key)" style="shape=partialRectangle;html=1;whiteSpace=wrap;connectable=0;overflow=hidden;fillColor=none;top=0;left=0;bottom=0;right=0;pointerEvents=1;fontSize=13;" vertex="1" parent="VkJ5TcABdocI_Z8cLHhA-79"><mxGeometry width="180" height="40" as="geometry"><mxRectangle width="180" height="40" as="alternateBounds"/></mxGeometry></mxCell><mxCell id="VkJ5TcABdocI_Z8cLHhA-81" value="" style="shape=tableRow;horizontal=0;startSize=0;swimlaneHead=0;swimlaneBody=0;top=0;left=0;bottom=0;right=0;collapsible=0;dropTarget=0;fillColor=none;points=[[0,0.5],[1,0.5]];portConstraint=eastwest;fontSize=13;" vertex="1" parent="VkJ5TcABdocI_Z8cLHhA-76"><mxGeometry y="80" width="180" height="40" as="geometry"/></mxCell><mxCell id="VkJ5TcABdocI_Z8cLHhA-82" value="&lt;strong&gt;ID_Siswa&lt;/strong&gt; (Foreign Key)" style="shape=partialRectangle;html=1;whiteSpace=wrap;connectable=0;overflow=hidden;fillColor=none;top=0;left=0;bottom=0;right=0;pointerEvents=1;fontSize=13;" vertex="1" parent="VkJ5TcABdocI_Z8cLHhA-81"><mxGeometry width="180" height="40" as="geometry"><mxRectangle width="180" height="40" as="alternateBounds"/></mxGeometry></mxCell><mxCell id="VkJ5TcABdocI_Z8cLHhA-83" value="" style="shape=tableRow;horizontal=0;startSize=0;swimlaneHead=0;swimlaneBody=0;top=0;left=0;bottom=0;right=0;collapsible=0;dropTarget=0;fillColor=none;points=[[0,0.5],[1,0.5]];portConstraint=eastwest;fontSize=13;" vertex="1" parent="VkJ5TcABdocI_Z8cLHhA-76"><mxGeometry y="120" width="180" height="40" as="geometry"/></mxCell><mxCell id="VkJ5TcABdocI_Z8cLHhA-84" value="&lt;strong&gt;ID_Matpel&lt;/strong&gt; (Foreign Key)" style="shape=partialRectangle;html=1;whiteSpace=wrap;connectable=0;overflow=hidden;fillColor=none;top=0;left=0;bottom=0;right=0;pointerEvents=1;fontSize=13;" vertex="1" parent="VkJ5TcABdocI_Z8cLHhA-83"><mxGeometry width="180" height="40" as="geometry"><mxRectangle width="180" height="40" as="alternateBounds"/></mxGeometry></mxCell><mxCell id="VkJ5TcABdocI_Z8cLHhA-85" value="" style="shape=tableRow;horizontal=0;startSize=0;swimlaneHead=0;swimlaneBody=0;top=0;left=0;bottom=0;right=0;collapsible=0;dropTarget=0;fillColor=none;points=[[0,0.5],[1,0.5]];portConstraint=eastwest;fontSize=13;" vertex="1" parent="VkJ5TcABdocI_Z8cLHhA-76"><mxGeometry y="160" width="180" height="50" as="geometry"/></mxCell><mxCell id="VkJ5TcABdocI_Z8cLHhA-86" value="&lt;strong&gt;Nilai_Matpel&lt;/strong&gt; (nilai mata pelajaran)" style="shape=partialRectangle;html=1;whiteSpace=wrap;connectable=0;overflow=hidden;fillColor=none;top=0;left=0;bottom=0;right=0;pointerEvents=1;fontSize=13;" vertex="1" parent="VkJ5TcABdocI_Z8cLHhA-85"><mxGeometry width="180" height="50" as="geometry"><mxRectangle width="180" height="50" as="alternateBounds"/></mxGeometry></mxCell><mxCell id="VkJ5TcABdocI_Z8cLHhA-87" value="" style="shape=tableRow;horizontal=0;startSize=0;swimlaneHead=0;swimlaneBody=0;top=0;left=0;bottom=0;right=0;collapsible=0;dropTarget=0;fillColor=none;points=[[0,0.5],[1,0.5]];portConstraint=eastwest;fontSize=13;" vertex="1" parent="VkJ5TcABdocI_Z8cLHhA-76"><mxGeometry y="210" width="180" height="40" as="geometry"/></mxCell><mxCell id="VkJ5TcABdocI_Z8cLHhA-88" value="" style="shape=partialRectangle;html=1;whiteSpace=wrap;connectable=0;overflow=hidden;fillColor=none;top=0;left=0;bottom=0;right=0;pointerEvents=1;fontSize=13;" vertex="1" parent="VkJ5TcABdocI_Z8cLHhA-87"><mxGeometry width="180" height="40" as="geometry"><mxRectangle width="180" height="40" as="alternateBounds"/></mxGeometry></mxCell><mxCell id="VkJ5TcABdocI_Z8cLHhA-89" value="" style="shape=table;startSize=0;container=1;collapsible=0;childLayout=tableLayout;fontSize=13;" vertex="1" parent="1"><mxGeometry x="-520" y="505" width="185" height="200" as="geometry"/></mxCell><mxCell id="VkJ5TcABdocI_Z8cLHhA-90" value="" style="shape=tableRow;horizontal=0;startSize=0;swimlaneHead=0;swimlaneBody=0;top=0;left=0;bottom=0;right=0;collapsible=0;dropTarget=0;fillColor=none;points=[[0,0.5],[1,0.5]];portConstraint=eastwest;fontSize=13;" vertex="1" parent="VkJ5TcABdocI_Z8cLHhA-89"><mxGeometry width="185" height="51" as="geometry"/></mxCell><mxCell id="VkJ5TcABdocI_Z8cLHhA-91" value="Test IQ Siswa&amp;nbsp;" style="shape=partialRectangle;html=1;whiteSpace=wrap;connectable=0;overflow=hidden;fillColor=#1ba1e2;top=0;left=0;bottom=0;right=0;pointerEvents=1;fontSize=13;fontColor=#ffffff;strokeColor=#006EAF;" vertex="1" parent="VkJ5TcABdocI_Z8cLHhA-90"><mxGeometry width="185" height="51" as="geometry"><mxRectangle width="185" height="51" as="alternateBounds"/></mxGeometry></mxCell><mxCell id="VkJ5TcABdocI_Z8cLHhA-92" value="" style="shape=tableRow;horizontal=0;startSize=0;swimlaneHead=0;swimlaneBody=0;top=0;left=0;bottom=0;right=0;collapsible=0;dropTarget=0;fillColor=none;points=[[0,0.5],[1,0.5]];portConstraint=eastwest;fontSize=13;" vertex="1" parent="VkJ5TcABdocI_Z8cLHhA-89"><mxGeometry y="51" width="185" height="49" as="geometry"/></mxCell><mxCell id="VkJ5TcABdocI_Z8cLHhA-93" value="&lt;strong&gt;ID_Test&lt;/strong&gt; (Primary Key)" style="shape=partialRectangle;html=1;whiteSpace=wrap;connectable=0;overflow=hidden;fillColor=none;top=0;left=0;bottom=0;right=0;pointerEvents=1;fontSize=13;" vertex="1" parent="VkJ5TcABdocI_Z8cLHhA-92"><mxGeometry width="185" height="49" as="geometry"><mxRectangle width="185" height="49" as="alternateBounds"/></mxGeometry></mxCell><mxCell id="VkJ5TcABdocI_Z8cLHhA-94" value="" style="shape=tableRow;horizontal=0;startSize=0;swimlaneHead=0;swimlaneBody=0;top=0;left=0;bottom=0;right=0;collapsible=0;dropTarget=0;fillColor=none;points=[[0,0.5],[1,0.5]];portConstraint=eastwest;fontSize=13;" vertex="1" parent="VkJ5TcABdocI_Z8cLHhA-89"><mxGeometry y="100" width="185" height="51" as="geometry"/></mxCell><mxCell id="VkJ5TcABdocI_Z8cLHhA-95" value="&lt;strong&gt;ID_Siswa&lt;/strong&gt; (Foreign Key)" style="shape=partialRectangle;html=1;whiteSpace=wrap;connectable=0;overflow=hidden;fillColor=none;top=0;left=0;bottom=0;right=0;pointerEvents=1;fontSize=13;" vertex="1" parent="VkJ5TcABdocI_Z8cLHhA-94"><mxGeometry width="185" height="51" as="geometry"><mxRectangle width="185" height="51" as="alternateBounds"/></mxGeometry></mxCell><mxCell id="VkJ5TcABdocI_Z8cLHhA-96" value="" style="shape=tableRow;horizontal=0;startSize=0;swimlaneHead=0;swimlaneBody=0;top=0;left=0;bottom=0;right=0;collapsible=0;dropTarget=0;fillColor=none;points=[[0,0.5],[1,0.5]];portConstraint=eastwest;fontSize=13;" vertex="1" parent="VkJ5TcABdocI_Z8cLHhA-89"><mxGeometry y="151" width="185" height="49" as="geometry"/></mxCell><mxCell id="VkJ5TcABdocI_Z8cLHhA-97" value="&lt;strong&gt;Nilai_IQ&lt;/strong&gt; (hasil tes IQ siswa)" style="shape=partialRectangle;html=1;whiteSpace=wrap;connectable=0;overflow=hidden;fillColor=none;top=0;left=0;bottom=0;right=0;pointerEvents=1;fontSize=13;" vertex="1" parent="VkJ5TcABdocI_Z8cLHhA-96"><mxGeometry width="185" height="49" as="geometry"><mxRectangle width="185" height="49" as="alternateBounds"/></mxGeometry></mxCell><mxCell id="VkJ5TcABdocI_Z8cLHhA-98" value="" style="shape=table;startSize=0;container=1;collapsible=0;childLayout=tableLayout;fontSize=13;" vertex="1" parent="1"><mxGeometry x="70" y="505" width="230" height="230" as="geometry"/></mxCell><mxCell id="VkJ5TcABdocI_Z8cLHhA-99" value="" style="shape=tableRow;horizontal=0;startSize=0;swimlaneHead=0;swimlaneBody=0;top=0;left=0;bottom=0;right=0;collapsible=0;dropTarget=0;fillColor=none;points=[[0,0.5],[1,0.5]];portConstraint=eastwest;fontSize=13;" vertex="1" parent="VkJ5TcABdocI_Z8cLHhA-98"><mxGeometry width="230" height="46" as="geometry"/></mxCell><mxCell id="VkJ5TcABdocI_Z8cLHhA-100" value="Rekomendasi" style="shape=partialRectangle;html=1;whiteSpace=wrap;connectable=0;overflow=hidden;fillColor=#1ba1e2;top=0;left=0;bottom=0;right=0;pointerEvents=1;fontSize=13;fontColor=#ffffff;strokeColor=#006EAF;" vertex="1" parent="VkJ5TcABdocI_Z8cLHhA-99"><mxGeometry width="230" height="46" as="geometry"><mxRectangle width="230" height="46" as="alternateBounds"/></mxGeometry></mxCell><mxCell id="VkJ5TcABdocI_Z8cLHhA-101" value="" style="shape=tableRow;horizontal=0;startSize=0;swimlaneHead=0;swimlaneBody=0;top=0;left=0;bottom=0;right=0;collapsible=0;dropTarget=0;fillColor=none;points=[[0,0.5],[1,0.5]];portConstraint=eastwest;fontSize=13;" vertex="1" parent="VkJ5TcABdocI_Z8cLHhA-98"><mxGeometry y="46" width="230" height="46" as="geometry"/></mxCell><mxCell id="VkJ5TcABdocI_Z8cLHhA-102" value="&lt;strong&gt;ID_Rekomendasi&lt;/strong&gt; (Primary Key)" style="shape=partialRectangle;html=1;whiteSpace=wrap;connectable=0;overflow=hidden;fillColor=none;top=0;left=0;bottom=0;right=0;pointerEvents=1;fontSize=13;" vertex="1" parent="VkJ5TcABdocI_Z8cLHhA-101"><mxGeometry width="230" height="46" as="geometry"><mxRectangle width="230" height="46" as="alternateBounds"/></mxGeometry></mxCell><mxCell id="VkJ5TcABdocI_Z8cLHhA-103" value="" style="shape=tableRow;horizontal=0;startSize=0;swimlaneHead=0;swimlaneBody=0;top=0;left=0;bottom=0;right=0;collapsible=0;dropTarget=0;fillColor=none;points=[[0,0.5],[1,0.5]];portConstraint=eastwest;fontSize=13;" vertex="1" parent="VkJ5TcABdocI_Z8cLHhA-98"><mxGeometry y="92" width="230" height="46" as="geometry"/></mxCell><mxCell id="VkJ5TcABdocI_Z8cLHhA-104" value="&lt;strong&gt;ID_Pengguna&lt;/strong&gt; (Foreign Key)" style="shape=partialRectangle;html=1;whiteSpace=wrap;connectable=0;overflow=hidden;fillColor=none;top=0;left=0;bottom=0;right=0;pointerEvents=1;fontSize=13;" vertex="1" parent="VkJ5TcABdocI_Z8cLHhA-103"><mxGeometry width="230" height="46" as="geometry"><mxRectangle width="230" height="46" as="alternateBounds"/></mxGeometry></mxCell><mxCell id="VkJ5TcABdocI_Z8cLHhA-105" value="" style="shape=tableRow;horizontal=0;startSize=0;swimlaneHead=0;swimlaneBody=0;top=0;left=0;bottom=0;right=0;collapsible=0;dropTarget=0;fillColor=none;points=[[0,0.5],[1,0.5]];portConstraint=eastwest;fontSize=13;" vertex="1" parent="VkJ5TcABdocI_Z8cLHhA-98"><mxGeometry y="138" width="230" height="46" as="geometry"/></mxCell><mxCell id="VkJ5TcABdocI_Z8cLHhA-106" value="&lt;strong&gt;ID_Matpel&lt;/strong&gt; (Foreign Key)" style="shape=partialRectangle;html=1;whiteSpace=wrap;connectable=0;overflow=hidden;fillColor=none;top=0;left=0;bottom=0;right=0;pointerEvents=1;fontSize=13;" vertex="1" parent="VkJ5TcABdocI_Z8cLHhA-105"><mxGeometry width="230" height="46" as="geometry"><mxRectangle width="230" height="46" as="alternateBounds"/></mxGeometry></mxCell><mxCell id="VkJ5TcABdocI_Z8cLHhA-107" value="" style="shape=tableRow;horizontal=0;startSize=0;swimlaneHead=0;swimlaneBody=0;top=0;left=0;bottom=0;right=0;collapsible=0;dropTarget=0;fillColor=none;points=[[0,0.5],[1,0.5]];portConstraint=eastwest;fontSize=13;" vertex="1" parent="VkJ5TcABdocI_Z8cLHhA-98"><mxGeometry y="184" width="230" height="46" as="geometry"/></mxCell><mxCell id="VkJ5TcABdocI_Z8cLHhA-108" value="Tanggal_Rekomendasi" style="shape=partialRectangle;html=1;whiteSpace=wrap;connectable=0;overflow=hidden;fillColor=none;top=0;left=0;bottom=0;right=0;pointerEvents=1;fontSize=13;" vertex="1" parent="VkJ5TcABdocI_Z8cLHhA-107"><mxGeometry width="230" height="46" as="geometry"><mxRectangle width="230" height="46" as="alternateBounds"/></mxGeometry></mxCell><mxCell id="VkJ5TcABdocI_Z8cLHhA-118" style="edgeStyle=none;html=1;entryX=-0.014;entryY=0.05;entryDx=0;entryDy=0;entryPerimeter=0;fontSize=13;exitX=1;exitY=0.5;exitDx=0;exitDy=0;" edge="1" parent="1" source="27" target="51"><mxGeometry relative="1" as="geometry"/></mxCell><mxCell id="VkJ5TcABdocI_Z8cLHhA-122" style="edgeStyle=orthogonalEdgeStyle;curved=1;html=1;fontSize=13;" edge="1" parent="1" source="51"><mxGeometry relative="1" as="geometry"><mxPoint x="180" y="500" as="targetPoint"/></mxGeometry></mxCell><mxCell id="VkJ5TcABdocI_Z8cLHhA-123" style="edgeStyle=orthogonalEdgeStyle;curved=1;html=1;entryX=1;entryY=0.5;entryDx=0;entryDy=0;fontSize=13;" edge="1" parent="1" source="51" target="VkJ5TcABdocI_Z8cLHhA-94"><mxGeometry relative="1" as="geometry"><Array as="points"><mxPoint x="-280" y="260"/><mxPoint x="-280" y="631"/></Array></mxGeometry></mxCell><mxCell id="VkJ5TcABdocI_Z8cLHhA-126" style="edgeStyle=orthogonalEdgeStyle;curved=1;html=1;fontSize=13;" edge="1" parent="1" source="VkJ5TcABdocI_Z8cLHhA-83" target="40"><mxGeometry relative="1" as="geometry"><Array as="points"><mxPoint x="-220" y="645"/><mxPoint x="-220" y="880"/></Array></mxGeometry></mxCell><mxCell id="VkJ5TcABdocI_Z8cLHhA-129" style="edgeStyle=none;html=1;fontSize=13;" edge="1" parent="1" source="62" target="66"><mxGeometry relative="1" as="geometry"/></mxCell><mxCell id="VkJ5TcABdocI_Z8cLHhA-130" value="Thread 1" style="swimlane;whiteSpace=wrap" vertex="1" parent="1"><mxGeometry x="-650" y="1510" width="280" height="570" as="geometry"/></mxCell><mxCell id="VkJ5TcABdocI_Z8cLHhA-131" value="" style="ellipse;shape=startState;fillColor=#000000;strokeColor=#ff0000;" vertex="1" parent="VkJ5TcABdocI_Z8cLHhA-130"><mxGeometry x="100" y="40" width="30" height="30" as="geometry"/></mxCell><mxCell id="VkJ5TcABdocI_Z8cLHhA-132" value="" style="edgeStyle=elbowEdgeStyle;elbow=horizontal;verticalAlign=bottom;endArrow=open;endSize=8;strokeColor=#FF0000;endFill=1;rounded=0" edge="1" parent="VkJ5TcABdocI_Z8cLHhA-130" source="VkJ5TcABdocI_Z8cLHhA-131" target="VkJ5TcABdocI_Z8cLHhA-133"><mxGeometry x="100" y="40" as="geometry"><mxPoint x="115" y="110" as="targetPoint"/></mxGeometry></mxCell><mxCell id="VkJ5TcABdocI_Z8cLHhA-133" value="idle" style="" vertex="1" parent="VkJ5TcABdocI_Z8cLHhA-130"><mxGeometry x="60" y="110" width="110" height="50" as="geometry"/></mxCell><mxCell id="VkJ5TcABdocI_Z8cLHhA-134" value="user action" style="" vertex="1" parent="VkJ5TcABdocI_Z8cLHhA-130"><mxGeometry x="60" y="220" width="110" height="50" as="geometry"/></mxCell><mxCell id="VkJ5TcABdocI_Z8cLHhA-135" value="" style="endArrow=open;strokeColor=#FF0000;endFill=1;rounded=0" edge="1" parent="VkJ5TcABdocI_Z8cLHhA-130" source="VkJ5TcABdocI_Z8cLHhA-133" target="VkJ5TcABdocI_Z8cLHhA-134"><mxGeometry relative="1" as="geometry"/></mxCell><mxCell id="VkJ5TcABdocI_Z8cLHhA-136" value="post command" style="" vertex="1" parent="VkJ5TcABdocI_Z8cLHhA-130"><mxGeometry x="60" y="325" width="110" height="50" as="geometry"/></mxCell><mxCell id="VkJ5TcABdocI_Z8cLHhA-137" value="" style="endArrow=open;strokeColor=#FF0000;endFill=1;rounded=0" edge="1" parent="VkJ5TcABdocI_Z8cLHhA-130" source="VkJ5TcABdocI_Z8cLHhA-134" target="VkJ5TcABdocI_Z8cLHhA-136"><mxGeometry relative="1" as="geometry"/></mxCell><mxCell id="VkJ5TcABdocI_Z8cLHhA-138" value="" style="edgeStyle=elbowEdgeStyle;elbow=horizontal;strokeColor=#FF0000;endArrow=open;endFill=1;rounded=0" edge="1" parent="VkJ5TcABdocI_Z8cLHhA-130" source="VkJ5TcABdocI_Z8cLHhA-136" target="VkJ5TcABdocI_Z8cLHhA-133"><mxGeometry width="100" height="100" relative="1" as="geometry"><mxPoint x="160" y="290" as="sourcePoint"/><mxPoint x="260" y="190" as="targetPoint"/><Array as="points"><mxPoint x="30" y="250"/></Array></mxGeometry></mxCell><mxCell id="VkJ5TcABdocI_Z8cLHhA-139" value="Thread 2" style="swimlane;whiteSpace=wrap" vertex="1" parent="1"><mxGeometry x="-370" y="1510" width="280" height="570" as="geometry"/></mxCell><mxCell id="VkJ5TcABdocI_Z8cLHhA-140" value="" style="ellipse;shape=startState;fillColor=#000000;strokeColor=#ff0000;" vertex="1" parent="VkJ5TcABdocI_Z8cLHhA-139"><mxGeometry x="60" y="40" width="30" height="30" as="geometry"/></mxCell><mxCell id="VkJ5TcABdocI_Z8cLHhA-141" value="" style="edgeStyle=elbowEdgeStyle;elbow=horizontal;verticalAlign=bottom;endArrow=open;endSize=8;strokeColor=#FF0000;endFill=1;rounded=0" edge="1" parent="VkJ5TcABdocI_Z8cLHhA-139" source="VkJ5TcABdocI_Z8cLHhA-140" target="VkJ5TcABdocI_Z8cLHhA-142"><mxGeometry x="40" y="20" as="geometry"><mxPoint x="55" y="90" as="targetPoint"/></mxGeometry></mxCell><mxCell id="VkJ5TcABdocI_Z8cLHhA-142" value="idle" style="" vertex="1" parent="VkJ5TcABdocI_Z8cLHhA-139"><mxGeometry x="20" y="110" width="110" height="50" as="geometry"/></mxCell><mxCell id="VkJ5TcABdocI_Z8cLHhA-143" value="check for &#10;new commands" style="" vertex="1" parent="VkJ5TcABdocI_Z8cLHhA-139"><mxGeometry x="20" y="220" width="110" height="50" as="geometry"/></mxCell><mxCell id="VkJ5TcABdocI_Z8cLHhA-144" value="" style="endArrow=open;strokeColor=#FF0000;endFill=1;rounded=0" edge="1" parent="VkJ5TcABdocI_Z8cLHhA-139" source="VkJ5TcABdocI_Z8cLHhA-142" target="VkJ5TcABdocI_Z8cLHhA-143"><mxGeometry relative="1" as="geometry"/></mxCell><mxCell id="VkJ5TcABdocI_Z8cLHhA-145" value="command queue" style="" vertex="1" parent="VkJ5TcABdocI_Z8cLHhA-139"><mxGeometry x="20" y="325" width="110" height="50" as="geometry"/></mxCell><mxCell id="VkJ5TcABdocI_Z8cLHhA-146" value="" style="endArrow=open;strokeColor=#FF0000;endFill=1;rounded=0" edge="1" parent="VkJ5TcABdocI_Z8cLHhA-139" source="VkJ5TcABdocI_Z8cLHhA-143" target="VkJ5TcABdocI_Z8cLHhA-145"><mxGeometry relative="1" as="geometry"/></mxCell><mxCell id="VkJ5TcABdocI_Z8cLHhA-147" value="queue empty" style="rhombus;fillColor=#ffffc0;strokeColor=#ff0000;" vertex="1" parent="VkJ5TcABdocI_Z8cLHhA-139"><mxGeometry x="150" y="225" width="80" height="40" as="geometry"/></mxCell><mxCell id="VkJ5TcABdocI_Z8cLHhA-148" value="yes" style="edgeStyle=elbowEdgeStyle;elbow=horizontal;align=left;verticalAlign=bottom;endArrow=open;endSize=8;strokeColor=#FF0000;exitX=0.5;exitY=0;endFill=1;rounded=0;entryX=0.75;entryY=0.5;entryPerimeter=0" edge="1" parent="VkJ5TcABdocI_Z8cLHhA-139" source="VkJ5TcABdocI_Z8cLHhA-147" target="VkJ5TcABdocI_Z8cLHhA-151"><mxGeometry x="-1" relative="1" as="geometry"><mxPoint x="160" y="150" as="targetPoint"/><Array as="points"><mxPoint x="190" y="180"/></Array></mxGeometry></mxCell><mxCell id="VkJ5TcABdocI_Z8cLHhA-149" value="no" style="edgeStyle=elbowEdgeStyle;elbow=horizontal;align=left;verticalAlign=top;endArrow=open;endSize=8;strokeColor=#FF0000;endFill=1;rounded=0" edge="1" parent="VkJ5TcABdocI_Z8cLHhA-139" source="VkJ5TcABdocI_Z8cLHhA-147" target="VkJ5TcABdocI_Z8cLHhA-153"><mxGeometry x="-1" relative="1" as="geometry"><mxPoint x="190" y="305" as="targetPoint"/></mxGeometry></mxCell><mxCell id="VkJ5TcABdocI_Z8cLHhA-150" value="" style="endArrow=open;strokeColor=#FF0000;endFill=1;rounded=0" edge="1" parent="VkJ5TcABdocI_Z8cLHhA-139" source="VkJ5TcABdocI_Z8cLHhA-143" target="VkJ5TcABdocI_Z8cLHhA-147"><mxGeometry relative="1" as="geometry"/></mxCell><mxCell id="VkJ5TcABdocI_Z8cLHhA-151" value="" style="shape=line;strokeWidth=6;strokeColor=#ff0000;rotation=90" vertex="1" parent="VkJ5TcABdocI_Z8cLHhA-139"><mxGeometry x="130" y="127.5" width="50" height="15" as="geometry"/></mxCell><mxCell id="VkJ5TcABdocI_Z8cLHhA-152" value="" style="edgeStyle=elbowEdgeStyle;elbow=horizontal;verticalAlign=bottom;endArrow=open;endSize=8;strokeColor=#FF0000;endFill=1;rounded=0" edge="1" parent="VkJ5TcABdocI_Z8cLHhA-139" source="VkJ5TcABdocI_Z8cLHhA-151" target="VkJ5TcABdocI_Z8cLHhA-142"><mxGeometry x="130" y="90" as="geometry"><mxPoint x="230" y="140" as="targetPoint"/></mxGeometry></mxCell><mxCell id="VkJ5TcABdocI_Z8cLHhA-153" value="dispatch&#10;command&#10;worker thread" style="" vertex="1" parent="VkJ5TcABdocI_Z8cLHhA-139"><mxGeometry x="140" y="325" width="110" height="50" as="geometry"/></mxCell><mxCell id="VkJ5TcABdocI_Z8cLHhA-154" value="critical&#10;section" style="shape=note;whiteSpace=wrap;size=17" vertex="1" parent="VkJ5TcABdocI_Z8cLHhA-139"><mxGeometry x="105" y="490" width="100" height="50" as="geometry"/></mxCell><mxCell id="VkJ5TcABdocI_Z8cLHhA-155" value="" style="endArrow=none;strokeColor=#FF0000;endFill=0;rounded=0;dashed=1" edge="1" parent="VkJ5TcABdocI_Z8cLHhA-139" source="VkJ5TcABdocI_Z8cLHhA-145" target="VkJ5TcABdocI_Z8cLHhA-154"><mxGeometry relative="1" as="geometry"/></mxCell><mxCell id="VkJ5TcABdocI_Z8cLHhA-156" value="" style="whiteSpace=wrap;strokeColor=#FF0000;fillColor=#FF0000" vertex="1" parent="VkJ5TcABdocI_Z8cLHhA-139"><mxGeometry x="245" y="395" width="5" height="45" as="geometry"/></mxCell><mxCell id="VkJ5TcABdocI_Z8cLHhA-157" value="" style="edgeStyle=elbowEdgeStyle;elbow=horizontal;entryX=0;entryY=0.5;strokeColor=#FF0000;endArrow=open;endFill=1;rounded=0" edge="1" parent="VkJ5TcABdocI_Z8cLHhA-139" source="VkJ5TcABdocI_Z8cLHhA-153" target="VkJ5TcABdocI_Z8cLHhA-156"><mxGeometry width="100" height="100" relative="1" as="geometry"><mxPoint x="60" y="480" as="sourcePoint"/><mxPoint x="160" y="380" as="targetPoint"/><Array as="points"><mxPoint x="195" y="400"/></Array></mxGeometry></mxCell><mxCell id="VkJ5TcABdocI_Z8cLHhA-158" value="Thread 3" style="swimlane;whiteSpace=wrap" vertex="1" parent="1"><mxGeometry x="-90" y="1510" width="280" height="570" as="geometry"/></mxCell><mxCell id="VkJ5TcABdocI_Z8cLHhA-159" value="process&#10;command" style="" vertex="1" parent="VkJ5TcABdocI_Z8cLHhA-158"><mxGeometry x="90" y="405" width="110" height="50" as="geometry"/></mxCell><mxCell id="VkJ5TcABdocI_Z8cLHhA-160" value="" style="edgeStyle=elbowEdgeStyle;elbow=horizontal;strokeColor=#FF0000;endArrow=open;endFill=1;rounded=0;entryX=0.25;entryY=0.5;entryPerimeter=0" edge="1" parent="VkJ5TcABdocI_Z8cLHhA-158" target="VkJ5TcABdocI_Z8cLHhA-151"><mxGeometry width="100" height="100" relative="1" as="geometry"><mxPoint x="-30" y="410" as="sourcePoint"/><mxPoint x="-120" y="120" as="targetPoint"/><Array as="points"><mxPoint x="-10" y="135"/></Array></mxGeometry></mxCell><mxCell id="VkJ5TcABdocI_Z8cLHhA-161" value="" style="edgeStyle=none;strokeColor=#FF0000;endArrow=open;endFill=1;rounded=0" edge="1" parent="VkJ5TcABdocI_Z8cLHhA-158" target="VkJ5TcABdocI_Z8cLHhA-159"><mxGeometry width="100" height="100" relative="1" as="geometry"><mxPoint x="-30" y="429.5" as="sourcePoint"/><mxPoint x="90" y="429.5" as="targetPoint"/></mxGeometry></mxCell><mxCell id="VkJ5TcABdocI_Z8cLHhA-162" value="" style="ellipse;shape=endState;fillColor=#000000;strokeColor=#ff0000" vertex="1" parent="VkJ5TcABdocI_Z8cLHhA-158"><mxGeometry x="130" y="500" width="30" height="30" as="geometry"/></mxCell><mxCell id="VkJ5TcABdocI_Z8cLHhA-163" value="" style="endArrow=open;strokeColor=#FF0000;endFill=1;rounded=0" edge="1" parent="VkJ5TcABdocI_Z8cLHhA-158" source="VkJ5TcABdocI_Z8cLHhA-159" target="VkJ5TcABdocI_Z8cLHhA-162"><mxGeometry relative="1" as="geometry"/></mxCell><mxCell id="VkJ5TcABdocI_Z8cLHhA-164" value="" style="endArrow=open;strokeColor=#FF0000;endFill=1;rounded=0" edge="1" parent="1" source="VkJ5TcABdocI_Z8cLHhA-136" target="VkJ5TcABdocI_Z8cLHhA-145"><mxGeometry relative="1" as="geometry"/></mxCell></root></mxGraphModel></diagram></mxfile>